<svg xmlns="http://www.w3.org/2000/svg" viewBox="0 0 24 24">
  <path fill="#181717" d="M12 0C5.37 0 0 5.37 0 12c0 5.3 3.44 9.8 8.2 11.4.6.1.82-.2.82-.6 0-.3-.01-1.1-.02-2.2-3.34.7-4.04-1.6-4.04-1.6-.55-1.4-1.34-1.8-1.34-1.8-1.09-.8.08-.8.08-.8 1.2.1 1.83 1.2 1.83 1.2 1.07 1.8 2.8 1.3 3.49 1 .11-.8.42-1.3.77-1.6-2.66-.3-5.47-1.3-5.47-5.9 0-1.3.47-2.4 1.24-3.2-.12-.3-.54-1.5.12-3.1 0 0 1-.3 3.3 1.2a11.5 11.5 0 0 1 6 0c2.3-1.5 3.3-1.2 3.3-1.2.66 1.6.24 2.8.12 3.1.77.8 1.24 1.9 1.24 3.2 0 4.6-2.81 5.6-5.48 5.9.43.4.81 1.1.81 2.2v3.3c0 .3.21.7.82.6A12 12 0 0 0 24 12c0-6.63-5.37-12-12-12z"/>
</svg>
